Coordinates
version=1
nRows=12
nColumns=63
inDegrees=yes

Units are S.I. units (second, meters, Newtons, ...)
If the header above contains a line with 'inDegrees', this indicates whether rotational values are in degrees (yes) or radians (no).

endheader
time	pelvis_tilt	pelvis_list	pelvis_rotation	pelvis_tx	pelvis_ty	pelvis_tz	hip_flexion_r	hip_adduction_r	hip_rotation_r	knee_angle_r	knee_angle_r_beta	ankle_angle_r	subtalar_angle_r	mtp_angle_r	hip_flexion_l	hip_adduction_l	hip_rotation_l	knee_angle_l	knee_angle_l_beta	ankle_angle_l	subtalar_angle_l	mtp_angle_l	L5_S1_Flex_Ext	L5_S1_Lat_Bending	L5_S1_axial_rotation	L4_L5_Flex_Ext	L4_L5_Lat_Bending	L4_L5_axial_rotation	L3_L4_Flex_Ext	L3_L4_Lat_Bending	L3_L4_axial_rotation	L2_L3_Flex_Ext	L2_L3_Lat_Bending	L2_L3_axial_rotation	L1_L2_Flex_Ext	L1_L2_Lat_Bending	L1_L2_axial_rotation	L1_T12_Flex_Ext	L1_T12_Lat_Bending	L1_T12_axial_rotation	Abs_r3	Abs_r2	Abs_r1	Abs_t1	Abs_t2	neck_flexion	neck_bending	neck_rotation	arm_flex_r	arm_add_r	arm_rot_r	elbow_flex_r	pro_sup_r	wrist_flex_r	wrist_dev_r	arm_flex_l	arm_add_l	arm_rot_l	elbow_flex_l	pro_sup_l	wrist_flex_l	wrist_dev_l
2.566038	-2.215914	-4.274694	79.517303	0.332547	1.062700	0.523070	0.036592	-2.990089	-11.279433	10.993358	0.191870	31.294200	17.608963	0.000000	-0.352553	1.668255	4.716004	7.133974	0.124511	26.741286	-10.540275	0.000000	0.312073	-1.227534	-0.976326	0.579551	-1.632620	-1.037347	0.512705	-2.984626	-1.037347	0.356668	-2.984626	-0.854285	0.289791	-2.503187	-0.793265	0.178318	-1.901450	-0.732245	2.229106	-13.886111	-5.430033	0.000000	0.000000	27.708282	1.601918	-6.888631	34.099314	-52.650319	-50.633350	114.939224	89.343642	-37.810487	-15.868021	77.675734	6.820428	26.902233	52.959801	83.022713	-12.478786	-10.088419
2.584906	-2.260114	-4.157057	79.358943	0.333217	1.062406	0.521964	-0.180329	-3.036532	-11.036869	10.904994	0.190328	31.159966	17.538019	0.000000	-0.642082	1.743165	5.008318	6.883006	0.120131	26.675803	-10.904297	0.000000	0.341421	-1.230558	-0.988097	0.634053	-1.636643	-1.049853	0.560921	-2.991979	-1.049853	0.390210	-2.991979	-0.864585	0.317044	-2.509355	-0.802829	0.195088	-1.906135	-0.741073	2.438738	-13.920322	-5.495499	0.000000	0.000000	28.024436	1.944688	-8.974844	32.991795	-53.649403	-53.248985	115.906379	90.168625	-40.990326	-17.346333	75.848270	4.936412	25.461493	50.045576	80.316984	-12.310447	-9.485474
2.603774	-2.285207	-3.981165	79.079000	0.334153	1.062140	0.521044	-0.427246	-3.073404	-10.676708	10.841848	0.189226	31.066836	17.471428	0.000000	-1.019767	1.807745	5.262147	6.596986	0.115139	26.578305	-11.327267	0.000000	0.363747	-1.230579	-1.000489	0.675515	-1.636670	-1.063019	0.597600	-2.992029	-1.063019	0.415727	-2.992029	-0.875428	0.337776	-2.509396	-0.812897	0.207845	-1.906167	-0.750366	2.598209	-13.920554	-5.564418	0.000000	0.000000	28.247222	2.065577	-11.098776	32.670619	-54.281906	-55.162753	116.811573	90.566554	-42.387428	-17.794614	74.048522	3.118023	24.242324	47.254669	77.179365	-11.937982	-8.321522
2.622642	-2.284645	-3.736016	78.681446	0.335325	1.061929	0.520367	-0.711042	-3.098985	-10.203095	10.809063	0.188654	31.037593	17.413133	0.000000	-1.489820	1.860171	5.465209	6.287681	0.109741	26.446983	-11.805750	0.000000	0.377127	-1.227120	-1.012690	0.700363	-1.632070	-1.075983	0.619583	-2.983620	-1.075983	0.431019	-2.983620	-0.886104	0.350200	-2.502344	-0.822811	0.215491	-1.900809	-0.759517	2.693783	-13.881429	-5.632277	0.000000	0.000000	28.355544	1.959369	-13.152920	33.190008	-54.584539	-56.135660	117.563761	90.540905	-42.290199	-17.450363	72.271651	1.417839	23.267356	44.700718	73.882296	-11.419533	-6.665440
2.641509	-2.265894	-3.414040	78.181715	0.336710	1.061799	0.519982	-1.035509	-3.123439	-9.629916	10.808741	0.188648	31.075579	17.365594	0.000000	-2.045560	1.910058	5.614757	5.972605	0.104242	26.279346	-12.334277	0.000000	0.380445	-1.221130	-1.027803	0.706525	-1.624103	-1.092040	0.625033	-2.969055	-1.092040	0.434811	-2.969055	-0.899327	0.353281	-2.490128	-0.835090	0.217386	-1.891530	-0.770852	2.717481	-13.813666	-5.716331	0.000000	0.000000	28.346650	1.669664	-14.954534	34.633837	-54.545424	-55.975219	118.079000	90.146680	-40.917087	-16.423936	70.509662	-0.173371	22.551636	42.511649	70.576811	-10.782784	-4.543628
2.660377	-2.236076	-3.024178	77.620431	0.338286	1.061739	0.519895	-1.391201	-3.151782	-9.007398	10.849995	0.189368	31.194088	17.331660	0.000000	-2.665184	1.959230	5.717279	5.666802	0.098904	26.086185	-12.892922	0.000000	0.373589	-1.214766	-1.046705	0.693792	-1.615639	-1.112124	0.613769	-2.953583	-1.112124	0.426975	-2.953583	-0.915866	0.346915	-2.477151	-0.850447	0.213469	-1.881673	-0.785028	2.668509	-13.741679	-5.821457	0.000000	0.000000	28.226042	1.274686	-16.450312	36.970819	-54.175191	-54.688623	118.339086	89.727858	-38.578729	-14.708728	68.754837	-1.628554	22.071073	40.754759	67.478461	-10.131333	-2.104708
2.679245	-2.209094	-2.571976	77.016571	0.340014	1.061732	0.520088	-1.776583	-3.197157	-8.361219	10.925987	0.190694	31.383855	17.306122	0.000000	-3.331226	2.019552	5.752213	5.385345	0.093992	25.884733	-13.442965	0.000000	0.356277	-1.208952	-1.074285	0.661642	-1.607906	-1.141427	0.585328	-2.939446	-1.141427	0.407189	-2.939446	-0.939999	0.330839	-2.465295	-0.872856	0.203577	-1.872667	-0.805714	2.544853	-13.675907	-5.974849	0.000000	0.000000	28.064925	0.853650	-17.462476	40.169973	-53.478565	-52.309661	118.283194	89.602880	-35.394216	-12.348722	66.965314	-2.996629	21.773293	39.520103	64.737708	-9.620116	0.370017
2.698113	-2.192983	-2.089409	76.408191	0.341827	1.061725	0.520484	-2.168947	-3.261408	-7.733665	11.030257	0.192514	31.631985	17.283319	0.000000	-4.002343	2.091209	5.703591	5.139860	0.089707	25.693881	-13.935598	0.000000	0.330746	-1.205049	-1.109313	0.614229	-1.602715	-1.178645	0.543383	-2.929956	-1.178645	0.378010	-2.929956	-0.970649	0.307131	-2.457336	-0.901317	0.188988	-1.866621	-0.831985	2.362486	-13.631755	-6.169668	0.000000	0.000000	27.932996	0.453632	-18.059196	44.023067	-52.611262	-48.969489	117.853092	89.581293	-31.618507	-9.531037	65.127261	-4.276604	21.641836	38.819613	62.450681	-9.483569	2.542758
2.716981	-2.196102	-1.606741	75.832544	0.343644	1.061688	0.521002	-2.546746	-3.347955	-7.172229	11.156607	0.194720	31.914726	17.262457	0.000000	-4.642746	2.176204	5.585184	4.933670	0.086109	25.523663	-14.345281	0.000000	0.300300	-1.204019	-1.156426	0.557688	-1.601345	-1.228702	0.493363	-2.927452	-1.228702	0.343213	-2.927452	-1.011872	0.278859	-2.455235	-0.939596	0.171592	-1.865025	-0.867319	2.145015	-13.620103	-6.431692	0.000000	0.000000	27.856524	0.110431	-18.298100	48.355021	-51.684950	-44.752752	116.940611	89.576908	-27.550428	-6.559367	63.234825	-5.487493	21.607272	38.636216	60.680854	-9.783585	4.196610
2.735849	-2.207262	-1.154180	75.321870	0.345347	1.061600	0.521539	-2.897275	-3.440882	-6.716939	11.287590	0.197006	32.206840	17.246881	0.000000	-5.222116	2.261487	5.417375	4.770079	0.083254	25.389503	-14.672607	0.000000	0.270019	-1.203048	-1.226699	0.501452	-1.600054	-1.303368	0.443614	-2.925091	-1.303368	0.308604	-2.925091	-1.073362	0.250739	-2.453256	-0.996693	0.154289	-1.863521	-0.920024	1.928716	-13.609120	-6.822531	0.000000	0.000000	27.809220	-0.144467	-18.154325	53.110433	-50.722026	-39.648804	115.394333	89.570629	-23.504779	-3.729691	61.264781	-6.659894	21.504218	38.962792	59.551075	-10.388980	5.300031
2.754717	-2.250040	-0.738367	74.905732	0.346901	1.061485	0.522039	-3.215100	-3.561189	-6.396511	11.417247	0.199269	32.497704	17.232882	0.000000	-5.728323	2.369323	5.232871	4.644870	0.081068	25.275918	-14.922446	0.000000	0.243037	-1.206965	-1.325265	0.451345	-1.605263	-1.408094	0.399286	-2.934614	-1.408094	0.277767	-2.934614	-1.159607	0.225685	-2.461243	-1.076777	0.138872	-1.869588	-0.993948	1.735992	-13.653427	-7.370724	0.000000	0.000000	27.778549	-0.246603	-17.763082	58.123615	-49.745874	-33.837613	113.157711	89.556794	-19.612974	-1.113111	59.229865	-7.839959	21.269101	39.748395	59.136252	-11.014528	5.828549
2.773585	-2.309281	-0.384152	74.622944	0.348188	1.061340	0.522428	-3.493011	-3.686262	-6.238143	11.524653	0.201143	32.766896	17.220221	0.000000	-6.136785	2.479952	5.063916	4.561739	0.079617	25.193614	-15.083229	0.000000	0.222882	-1.213226	-1.456079	0.413915	-1.613591	-1.547084	0.366173	-2.949838	-1.547084	0.254732	-2.949838	-1.274069	0.206968	-2.474011	-1.183064	0.127355	-1.879288	-1.092059	1.592026	-13.724259	-8.098274	0.000000	0.000000	27.762183	-0.192619	-17.165046	63.250685	-48.819400	-27.441215	110.217949	89.522661	-15.942592	1.259973	57.146415	-8.985390	20.754717	40.906601	59.514146	-11.419433	5.925451
